<?xml version="1.0" encoding="UTF-8"?>
<svg width="31px" height="30px" viewBox="0 0 31 30" version="1.1" xmlns="http://www.w3.org/2000/svg" xmlns:xlink="http://www.w3.org/1999/xlink">
    <title>mma</title>
    <g id="Page-1" stroke="none" stroke-width="1" fill="none" fill-rule="evenodd">
        <g id="Desktop-HD" transform="translate(-16.000000, -20.000000)" fill="#333333" fill-rule="nonzero">
            <path d="M31.68,49.84 C39.84,49.84 46.4,43.2 46.4,35.08 C46.4,27 39.8,20.32 31.68,20.32 C23.56,20.32 16.92,26.96 16.92,35.08 C16.92,43.24 23.52,49.84 31.68,49.84 Z M30.68,33.64 L19,33.64 C19.68,27.56 24.6,22.88 30.68,22.4 L30.68,33.64 Z M44.32,33.64 L32.68,33.64 L32.68,22.4 C38.76,22.88 43.64,27.56 44.32,33.64 Z M30.68,47.8 C24.24,47.28 19.24,42.08 18.92,35.64 L30.68,35.64 L30.68,47.8 Z M32.68,47.8 L32.68,35.64 L44.4,35.64 C44.16,42.04 39.04,47.28 32.68,47.8 Z M31.68,49.84 C39.84,49.84 46.4,43.2 46.4,35.08 C46.4,27 39.8,20.32 31.68,20.32 C23.56,20.32 16.92,26.96 16.92,35.08 C16.92,43.24 23.52,49.84 31.68,49.84 Z M30.68,33.64 L19,33.64 C19.68,27.56 24.6,22.88 30.68,22.4 L30.68,33.64 Z M44.32,33.64 L32.68,33.64 L32.68,22.4 C38.76,22.88 43.64,27.56 44.32,33.64 Z M30.68,47.8 C24.24,47.28 19.24,42.08 18.92,35.64 L30.68,35.64 L30.68,47.8 Z M32.68,47.8 L32.68,35.64 L44.4,35.64 C44.16,42.04 39.04,47.28 32.68,47.8 Z" id="mma"></path>
        </g>
    </g>
</svg>